<svg width="707.1" height="200" xmlns="http://www.w3.org/2000/svg">

 <g>
  <title>background</title>
  <rect fill="none" id="canvas_background" height="202" width="709.1" y="-1" x="-1"/>
 </g>
 <g>
  <title>Layer 1</title>
  <g id="svg_1">
   <path id="svg_2" fill="#44BEFD" d="m153.427444,103.831375c-13.469803,-13.469803 -31.37825,-20.887207 -50.427444,-20.887207s-36.957642,7.417404 -50.427437,20.887207c-13.46978,13.469772 -20.887199,31.378235 -20.887199,50.427414c0,5.989578 1.731628,11.802246 5.007751,16.808716c5.706299,8.724777 15.327026,13.932495 25.733452,13.932495c8.551758,0 15.22963,-1.977737 21.685738,-3.891357c6.049805,-1.79187 11.763794,-3.485062 18.887695,-3.485062c7.125191,0 12.839165,1.693192 18.887695,3.485062c6.456116,1.91362 13.13269,3.891357 21.684448,3.891357c10.407715,0 20.028442,-5.208984 25.738602,-13.935059c3.272263,-5.003906 5.002625,-10.815292 5.002625,-16.806152c0.001282,-19.049179 -7.417419,-36.957642 -20.885925,-50.427414zm0,0"/>
   <path id="svg_3" class="active-path" fill="#215F7F" d="m153.427444,103.831375c-13.469803,-13.469803 -31.37825,-20.887207 -50.427444,-20.887207l0,94.679413c7.125191,0 12.839165,1.693192 18.887695,3.485062c6.456116,1.91362 13.13269,3.891357 21.684448,3.891357c10.407715,0 20.028442,-5.208984 25.738602,-13.935059c3.272263,-5.003906 5.002625,-10.815292 5.002625,-16.806152c0.001282,-19.049179 -7.417419,-36.957642 -20.885925,-50.427414zm0,0"/>
   <path id="svg_4" fill="#fdf6c8" d="m118.815376,125.073608l-10.893501,0l0,-10.893494c0,-2.718552 -2.203316,-4.921875 -4.921875,-4.921875s-4.921875,2.203323 -4.921875,4.921875l0,10.893494l-10.893501,0c-2.718559,0 -4.921875,2.203323 -4.921875,4.921875c0,2.718567 2.203316,4.921875 4.921875,4.921875l10.893501,0l0,10.893509c0,2.718567 2.203316,4.921875 4.921875,4.921875s4.921875,-2.203308 4.921875,-4.921875l0,-10.893509l10.893501,0c2.717285,0 4.921875,-2.203308 4.921875,-4.921875c0,-2.718552 -2.20459,-4.921875 -4.921875,-4.921875zm0,0"/>
   <path id="svg_5" fill="#44BEFD" d="m80.154297,17.000011c-5.726807,0 -11.238281,2.968506 -15.120659,8.145437c-3.622208,4.82959 -5.616592,11.174212 -5.616592,17.863588c0,6.690674 1.994385,13.035278 5.616592,17.864864c3.882378,5.175659 9.393852,8.144165 15.120659,8.144165c5.728081,0 11.239555,-2.968506 15.121948,-8.144165c3.620918,-4.829586 5.615303,-11.174191 5.615303,-17.864864s-1.994385,-13.03528 -5.615303,-17.863588c-3.882393,-5.176931 -9.393867,-8.145437 -15.121948,-8.145437zm0,0"/>
   <path id="svg_6" fill="#ca6d36" d="m125.844429,17.000011c-5.726807,0 -11.238281,2.968506 -15.120674,8.145437c-3.620918,4.82959 -5.616577,11.174212 -5.616577,17.863588c0,6.690674 1.995659,13.035278 5.616577,17.864864c3.882393,5.175659 9.393867,8.144165 15.120674,8.144165s11.238274,-2.968506 15.120659,-8.144165c3.622192,-4.829586 5.616577,-11.174191 5.616577,-17.864864s-1.994385,-13.03528 -5.616577,-17.863588c-3.882385,-5.176931 -9.39386,-8.145437 -15.120659,-8.145437zm0,0"/>
   <path id="svg_7" fill="#ca6d36" d="m182.155029,46.960636c-3.391464,-4.521973 -8.223633,-7.116211 -13.257019,-7.116211c-5.033386,0 -9.864258,2.594238 -13.255722,7.116211c-3.124893,4.165665 -4.846268,9.627136 -4.846268,15.379574c0,5.751175 1.721375,11.212662 4.846268,15.378296c3.391464,4.521973 8.223633,7.116211 13.255722,7.116211c5.034668,0 9.865555,-2.594238 13.257019,-7.116211c3.124863,-4.165634 4.844971,-9.627121 4.844971,-15.378296c0,-5.752438 -1.720108,-11.213909 -4.844971,-15.379574zm0,0"/>
   <path id="svg_8" fill="#44BEFD" d="m37.100708,39.844425c-5.033386,0 -9.864258,2.594238 -13.255737,7.116211c-3.124878,4.165665 -4.844971,9.627136 -4.844971,15.379574c0,5.751175 1.720093,11.212662 4.844971,15.378296c3.391479,4.521973 8.223633,7.116211 13.255737,7.116211c5.034668,0 9.865547,-2.594238 13.258301,-7.116211c3.123604,-4.165634 4.843681,-9.627121 4.843681,-15.378296c0,-5.752438 -1.720078,-11.213909 -4.843681,-15.379574c-3.392754,-4.521973 -8.223633,-7.116211 -13.258301,-7.116211zm0,0"/>
   <path id="svg_9" class="active-path" fill="#215F7F" d="m125.844429,69.018066c5.728081,0 11.238274,-2.968506 15.120659,-8.144165c3.622192,-4.829586 5.616577,-11.174191 5.616577,-17.864864c0,-6.689377 -1.994385,-13.033998 -5.616577,-17.863588c-3.882385,-5.176931 -9.39386,-8.145437 -15.120659,-8.145437s-11.238281,2.968506 -15.120674,8.145437c-3.620918,4.82959 -5.616577,11.174212 -5.616577,17.863588c0,6.690674 1.995659,13.035278 5.616577,17.864864c3.882393,5.175659 9.393867,8.144165 15.120674,8.144165zm0,0"/>
   <path id="svg_10" class="active-path" fill="#215F7F" d="m182.155029,46.960636c-3.391464,-4.521973 -8.223633,-7.116211 -13.257019,-7.116211c-5.033386,0 -9.864258,2.594238 -13.255722,7.116211c-3.124893,4.165665 -4.846268,9.627136 -4.846268,15.379574c0,5.751175 1.721375,11.212662 4.846268,15.378296c3.391464,4.521973 8.223633,7.116211 13.255722,7.116211c5.034668,0 9.865555,-2.594238 13.257019,-7.116211c3.124863,-4.165634 4.844971,-9.627121 4.844971,-15.378296c0,-5.752438 -1.720108,-11.213909 -4.844971,-15.379574zm0,0"/>
   <path id="svg_11" fill="#FFDE8D" d="m118.815376,125.073608l-10.893501,0l0,-10.893494c0,-2.718552 -2.203316,-4.921875 -4.921875,-4.921875l0,41.474503c2.718559,0 4.921875,-2.203308 4.921875,-4.921875l0,-10.893509l10.893501,0c2.717285,0 4.921875,-2.203308 4.921875,-4.921875c0,-2.718552 -2.20459,-4.921875 -4.921875,-4.921875zm0,0"/>
  </g>
  <text font-weight="bold" xml:space="preserve" text-anchor="start" font-family="Euphoria, sans-serif" font-size="147" id="svg_12" y="153.449997" x="208.049988" stroke-width="2" stroke="#44befd" fill="#44befd">PETTY</text>
 </g>
</svg>